<?xml version="1.0"?>
<!DOCTYPE svg PUBLIC "-//W3C//DTD SVG 1.1//EN" "http://www.w3.org/Graphics/SVG/1.1/DTD/svg11.dtd">
<svg xmlns="http://www.w3.org/2000/svg" version="1.1">
<g transform="translate(72.4,138.4)" stroke-width="0" fill="none" >
<path  
style="fill:rgb(255,255,255)" 
d="M 5.3 -112.9
Q 3.8,-117.0,1.6,-117.0
Q -0.6,-117.0,-2.1,-112.9
Q -3.6,-108.8,-3.6,-103.0
Q -3.6,-97.2,-2.1,-93.1
Q -0.6,-89.0,1.6,-89.0
Q 3.8,-89.0,5.3,-93.1
Q 6.9,-97.2,6.9,-103.0
Q 6.9,-108.8,5.3,-112.9
 " /> 
<path  
style="fill:rgb(255,255,255)" 
d="M 1.4 59.2
Q 1.4,59.2,1.4,59.1
Q 0.7,59.0,0.1,58.9
Q 0.7,59.1,1.4,59.2
 " /> 
<path  
style="fill:rgb(255,255,255)" 
d="M 1.4 59.2
Q 2.2,59.3,3.0,59.3
Q 2.2,59.2,1.4,59.1
Q 1.4,59.2,1.4,59.2
 " /> 
<path  
style="fill:rgb(255,255,255)" 
d="M 2.1 -66.7
Q 2.1,-66.7,2.0,-65.7
Q 2.1,-65.6,2.1,-65.6
Q 2.1,-66.1,2.1,-66.7
 " /> 
<path  
style="fill:rgb(255,255,255)" 
d="M 2.1 -66.7
Q 1.7,-66.9,1.2,-67.1
Q 1.6,-66.4,2.0,-65.7
Q 2.1,-66.7,2.1,-66.7
 " /> 
<path  
style="fill:rgb(255,255,255)" 
d="M -59.4 124.4
Q -63.9,127.7,-66.0,129.2
Q -63.3,128.9,-63.2,130.5
Q -62.6,130.5,-61.8,130.5
Q -59.6,130.5,-58.2,130.5
Q -58.8,127.4,-59.4,124.4
 " /> 
<path  
style="fill:rgb(255,255,255)" 
d="M -63.5 127.3
Q -67.8,130.5,-67.8,130.5
Q -67.8,130.4,-63.2,130.5
Q -63.3,128.9,-63.5,127.3
 " /> 
<path  
style="stroke:rgb(50,168,50)" stroke-width="42.8 "  
d="M 5.3 -112.9
Q 3.8,-117.0,1.6,-117.0
Q -0.6,-117.0,-2.1,-112.9
Q -3.6,-108.8,-3.6,-103.0
Q -3.6,-97.2,-2.1,-93.1
Q -0.6,-89.0,1.6,-89.0
Q 3.8,-89.0,5.3,-93.1
Q 6.9,-97.2,6.9,-103.0
Q 6.9,-108.8,5.3,-112.9
 " /> 
<path  
style="stroke:rgb(50,168,50)" stroke-width="9.0 "  
d="M 2.1 -66.7
Q 2.1,-66.7,-0.9,-36.8
Q -4.0,-6.8,-4.0,-6.8
Q -4.0,-6.8,-1.3,26.2
Q 1.4,59.2,1.4,59.2
 " /> 
<path  
style="stroke:rgb(50,168,50)" stroke-width="9.0 "  
d="M 3.0 59.3
Q 3.0,59.3,26.9,74.3
Q 50.7,89.3,50.7,89.3
Q 50.7,89.3,55.6,110.0
Q 60.4,130.6,60.4,130.6
Q 60.4,130.6,66.5,130.6
Q 72.5,130.6,72.5,130.6
Q 72.5,130.6,77.7,130.4
Q 82.8,130.2,82.8,130.2
 " /> 
<path  
style="stroke:rgb(50,168,50)" stroke-width="9.0 "  
d="M 0.1 58.9
Q 0.1,58.9,-13.5,79.9
Q -27.3,101.2,-27.3,101.2
Q -27.3,101.2,-47.5,115.8
Q -67.8,130.5,-67.8,130.5
Q -67.8,130.4,-61.8,130.5
Q -55.8,130.5,-55.8,130.5
Q -55.8,130.4,-50.0,130.4
Q -44.1,130.4,-44.1,130.4
 " /> 
<path  
style="stroke:rgb(50,168,50)" stroke-width="9.0 "  
d="M 1.2 -67.1
Q 1.2,-67.1,29.5,-75.5
Q 57.9,-84.0,57.9,-84.0
Q 57.9,-84.0,80.1,-84.3
Q 102.3,-84.7,102.3,-84.7
Q 102.3,-84.6,102.6,-79.6
Q 102.8,-74.6,102.8,-74.6
 " /> 
<path  
style="stroke:rgb(50,168,50)" stroke-width="9.0 "  
d="M 2.1 -65.6
Q 2.2,-65.5,34.6,-62.3
Q 67.1,-59.1,67.1,-59.1
Q 67.1,-59.1,83.7,-48.6
Q 100.4,-38.1,100.5,-38.1
Q 100.5,-38.1,100.7,-33.1
Q 101.0,-28.1,101.0,-28.1
 " /> 
</g> 
</svg> 
